<mxfile host="app.diagrams.net" modified="2024-01-23T08:30:26.275Z" agent="Mozilla/5.0 (Windows NT 10.0; Win64; x64) AppleWebKit/537.36 (KHTML, like Gecko) Chrome/120.0.0.0 Safari/537.36" etag="yp8oJspD8sMbVeC16v7x" version="22.1.21" type="google" pages="14">
  <diagram id="srSarf_iVMtm-178fV4I" name="INFO">
    <mxGraphModel grid="1" page="1" gridSize="10" guides="1" tooltips="1" connect="1" arrows="1" fold="1" pageScale="1" pageWidth="827" pageHeight="1169" math="0" shadow="0">
      <root>
        <mxCell id="0" />
        <mxCell id="1" parent="0" />
        <mxCell id="3PB9cPCuCjKQ1XBIXNEU-1" value="" style="group;fontFamily=Helvetica;fontSize=11;fontColor=default;fillColor=#00FFFF;fillStyle=hatch;" connectable="0" vertex="1" parent="1">
          <mxGeometry width="339" height="119" as="geometry" />
        </mxCell>
        <mxCell id="3PB9cPCuCjKQ1XBIXNEU-2" value="&lt;span style=&quot;font-weight: normal; font-size: 14px;&quot;&gt;&lt;font style=&quot;font-size: 14px;&quot;&gt;Text&lt;/font&gt;&lt;/span&gt;" style="text;strokeColor=none;fillColor=none;html=1;fontSize=11;fontStyle=1;verticalAlign=middle;align=center;fontFamily=Helvetica;container=0;points=[];fontColor=default;" vertex="1" parent="3PB9cPCuCjKQ1XBIXNEU-1">
          <mxGeometry x="20" y="49" width="109" height="10" as="geometry" />
        </mxCell>
        <mxCell id="3PB9cPCuCjKQ1XBIXNEU-3" value="&lt;span style=&quot;font-weight: 400;&quot;&gt;OS v.&lt;/span&gt;" style="text;strokeColor=none;fillColor=none;html=1;fontSize=11;fontStyle=1;verticalAlign=middle;align=left;fontFamily=Helvetica;container=0;points=[];fontColor=default;" vertex="1" parent="3PB9cPCuCjKQ1XBIXNEU-1">
          <mxGeometry width="190" height="40" as="geometry" />
        </mxCell>
        <mxCell id="3PB9cPCuCjKQ1XBIXNEU-4" value="" style="shape=mxgraph.rack.hp.hp_proliant_dl380e_g8;html=1;labelPosition=right;align=left;spacingLeft=15;dashed=0;shadow=0;fillColor=#ffffff;container=0;points=[[0.2,1,0,0,0],[0.82,1,0,0,0]];fontFamily=Helvetica;fontSize=11;fontColor=default;" vertex="1" parent="3PB9cPCuCjKQ1XBIXNEU-1">
          <mxGeometry x="129.5" y="40" width="209.5" height="39" as="geometry" />
        </mxCell>
        <mxCell id="3PB9cPCuCjKQ1XBIXNEU-5" value="&lt;span style=&quot;font-weight: normal; font-size: 14px;&quot;&gt;&lt;font style=&quot;font-size: 14px;&quot;&gt;Generic Server&lt;/font&gt;&lt;/span&gt;" style="text;strokeColor=none;fillColor=none;html=1;fontSize=11;fontStyle=1;verticalAlign=middle;align=center;fontFamily=Helvetica;container=0;points=[];fontColor=default;" vertex="1" parent="3PB9cPCuCjKQ1XBIXNEU-1">
          <mxGeometry x="20" y="69" width="109" height="10" as="geometry" />
        </mxCell>
        <mxCell id="3PB9cPCuCjKQ1XBIXNEU-6" value="&lt;span style=&quot;font-weight: 400; font-size: 10px;&quot;&gt;IE ADDR 2&lt;/span&gt;" style="text;strokeColor=none;fillColor=default;html=1;fontSize=11;fontStyle=1;verticalAlign=middle;align=center;fontFamily=Helvetica;container=0;points=[];fontColor=default;" vertex="1" parent="3PB9cPCuCjKQ1XBIXNEU-1">
          <mxGeometry x="260" y="79" width="79" height="10" as="geometry" />
        </mxCell>
        <mxCell id="3PB9cPCuCjKQ1XBIXNEU-7" value="&lt;span style=&quot;font-weight: normal; font-size: 10px;&quot;&gt;&lt;font style=&quot;font-size: 10px;&quot;&gt;IE ADDR&lt;/font&gt;&lt;/span&gt;" style="text;strokeColor=none;fillColor=default;html=1;fontSize=11;fontStyle=1;verticalAlign=middle;align=center;fontFamily=Helvetica;container=0;points=[];fontColor=default;" vertex="1" parent="3PB9cPCuCjKQ1XBIXNEU-1">
          <mxGeometry x="130" y="79" width="79" height="10" as="geometry" />
        </mxCell>
        <mxCell id="3PB9cPCuCjKQ1XBIXNEU-8" value="&lt;span style=&quot;font-weight: normal; font-size: 10px;&quot;&gt;&lt;font style=&quot;font-size: 10px;&quot;&gt;Switch Port&lt;br&gt;&lt;/font&gt;&lt;/span&gt;" style="text;strokeColor=none;fillColor=default;html=1;fontSize=11;fontStyle=1;verticalAlign=middle;align=center;fontFamily=Helvetica;container=0;points=[];fontColor=default;" vertex="1" parent="3PB9cPCuCjKQ1XBIXNEU-1">
          <mxGeometry x="130" y="99" width="79" height="10" as="geometry" />
        </mxCell>
        <mxCell id="3PB9cPCuCjKQ1XBIXNEU-9" value="&lt;span style=&quot;font-weight: normal; font-size: 10px;&quot;&gt;&lt;font style=&quot;font-size: 10px;&quot;&gt;Switch Name&lt;br&gt;&lt;/font&gt;&lt;/span&gt;" style="text;strokeColor=none;fillColor=default;html=1;fontSize=11;fontStyle=1;verticalAlign=middle;align=center;fontFamily=Helvetica;container=0;points=[];fontColor=default;" vertex="1" parent="3PB9cPCuCjKQ1XBIXNEU-1">
          <mxGeometry x="130" y="109" width="79" height="10" as="geometry" />
        </mxCell>
        <mxCell id="3PB9cPCuCjKQ1XBIXNEU-10" value="&lt;span style=&quot;font-weight: normal; font-size: 10px;&quot;&gt;&lt;font style=&quot;font-size: 10px;&quot;&gt;Switch Port&lt;br&gt;&lt;/font&gt;&lt;/span&gt;" style="text;strokeColor=none;fillColor=default;html=1;fontSize=11;fontStyle=1;verticalAlign=middle;align=center;fontFamily=Helvetica;container=0;points=[];fontColor=default;" vertex="1" parent="3PB9cPCuCjKQ1XBIXNEU-1">
          <mxGeometry x="260" y="99" width="79" height="10" as="geometry" />
        </mxCell>
        <mxCell id="3PB9cPCuCjKQ1XBIXNEU-11" value="&lt;span style=&quot;font-weight: normal; font-size: 10px;&quot;&gt;&lt;font style=&quot;font-size: 10px;&quot;&gt;Switch Name&lt;br&gt;&lt;/font&gt;&lt;/span&gt;" style="text;strokeColor=none;fillColor=default;html=1;fontSize=11;fontStyle=1;verticalAlign=middle;align=center;fontFamily=Helvetica;container=0;points=[];fontColor=default;" vertex="1" parent="3PB9cPCuCjKQ1XBIXNEU-1">
          <mxGeometry x="260" y="109" width="79" height="10" as="geometry" />
        </mxCell>
        <mxCell id="3PB9cPCuCjKQ1XBIXNEU-16" value="Enhet skal sjekkes alder pÃ¥ og markeres" style="text;html=1;strokeColor=none;fillColor=none;align=center;verticalAlign=middle;whiteSpace=wrap;rounded=0;fontSize=11;fontFamily=Helvetica;fontColor=default;" vertex="1" parent="1">
          <mxGeometry x="340" y="20" width="180" height="40" as="geometry" />
        </mxCell>
        <mxCell id="3PB9cPCuCjKQ1XBIXNEU-17" value="00FFFF" style="text;html=1;strokeColor=none;fillColor=none;align=center;verticalAlign=middle;whiteSpace=wrap;rounded=0;fontSize=11;fontFamily=Helvetica;fontColor=default;" vertex="1" parent="1">
          <mxGeometry x="340" y="60" width="180" height="20" as="geometry" />
        </mxCell>
        <mxCell id="3PB9cPCuCjKQ1XBIXNEU-18" value="Hatch" style="text;html=1;strokeColor=none;fillColor=none;align=center;verticalAlign=middle;whiteSpace=wrap;rounded=0;fontSize=11;fontFamily=Helvetica;fontColor=default;" vertex="1" parent="1">
          <mxGeometry x="340" y="80" width="180" height="20" as="geometry" />
        </mxCell>
        <mxCell id="3PB9cPCuCjKQ1XBIXNEU-19" value="" style="group;fontFamily=Helvetica;fontSize=11;fontColor=default;fillColor=#00FF00;fillStyle=hatch;" connectable="0" vertex="1" parent="1">
          <mxGeometry y="160" width="339" height="119" as="geometry" />
        </mxCell>
        <mxCell id="3PB9cPCuCjKQ1XBIXNEU-20" value="&lt;span style=&quot;font-weight: normal; font-size: 14px;&quot;&gt;&lt;font style=&quot;font-size: 14px;&quot;&gt;Text&lt;/font&gt;&lt;/span&gt;" style="text;strokeColor=none;fillColor=none;html=1;fontSize=11;fontStyle=1;verticalAlign=middle;align=center;fontFamily=Helvetica;container=0;points=[];fontColor=default;" vertex="1" parent="3PB9cPCuCjKQ1XBIXNEU-19">
          <mxGeometry x="20" y="49" width="109" height="10" as="geometry" />
        </mxCell>
        <mxCell id="3PB9cPCuCjKQ1XBIXNEU-21" value="&lt;span style=&quot;font-weight: 400;&quot;&gt;OS v.&lt;/span&gt;" style="text;strokeColor=none;fillColor=none;html=1;fontSize=11;fontStyle=1;verticalAlign=middle;align=left;fontFamily=Helvetica;container=0;points=[];fontColor=default;" vertex="1" parent="3PB9cPCuCjKQ1XBIXNEU-19">
          <mxGeometry width="190" height="40" as="geometry" />
        </mxCell>
        <mxCell id="3PB9cPCuCjKQ1XBIXNEU-22" value="" style="shape=mxgraph.rack.hp.hp_proliant_dl380e_g8;html=1;labelPosition=right;align=left;spacingLeft=15;dashed=0;shadow=0;fillColor=#ffffff;container=0;points=[[0.2,1,0,0,0],[0.82,1,0,0,0]];fontFamily=Helvetica;fontSize=11;fontColor=default;" vertex="1" parent="3PB9cPCuCjKQ1XBIXNEU-19">
          <mxGeometry x="129.5" y="40" width="209.5" height="39" as="geometry" />
        </mxCell>
        <mxCell id="3PB9cPCuCjKQ1XBIXNEU-23" value="&lt;span style=&quot;font-weight: normal; font-size: 14px;&quot;&gt;&lt;font style=&quot;font-size: 14px;&quot;&gt;Generic Server&lt;/font&gt;&lt;/span&gt;" style="text;strokeColor=none;fillColor=none;html=1;fontSize=11;fontStyle=1;verticalAlign=middle;align=center;fontFamily=Helvetica;container=0;points=[];fontColor=default;" vertex="1" parent="3PB9cPCuCjKQ1XBIXNEU-19">
          <mxGeometry x="20" y="69" width="109" height="10" as="geometry" />
        </mxCell>
        <mxCell id="3PB9cPCuCjKQ1XBIXNEU-24" value="&lt;span style=&quot;font-weight: 400; font-size: 10px;&quot;&gt;IE ADDR 2&lt;/span&gt;" style="text;strokeColor=none;fillColor=default;html=1;fontSize=11;fontStyle=1;verticalAlign=middle;align=center;fontFamily=Helvetica;container=0;points=[];fontColor=default;" vertex="1" parent="3PB9cPCuCjKQ1XBIXNEU-19">
          <mxGeometry x="260" y="79" width="79" height="10" as="geometry" />
        </mxCell>
        <mxCell id="3PB9cPCuCjKQ1XBIXNEU-25" value="&lt;span style=&quot;font-weight: normal; font-size: 10px;&quot;&gt;&lt;font style=&quot;font-size: 10px;&quot;&gt;IE ADDR&lt;/font&gt;&lt;/span&gt;" style="text;strokeColor=none;fillColor=default;html=1;fontSize=11;fontStyle=1;verticalAlign=middle;align=center;fontFamily=Helvetica;container=0;points=[];fontColor=default;" vertex="1" parent="3PB9cPCuCjKQ1XBIXNEU-19">
          <mxGeometry x="130" y="79" width="79" height="10" as="geometry" />
        </mxCell>
        <mxCell id="3PB9cPCuCjKQ1XBIXNEU-26" value="&lt;span style=&quot;font-weight: normal; font-size: 10px;&quot;&gt;&lt;font style=&quot;font-size: 10px;&quot;&gt;Switch Port&lt;br&gt;&lt;/font&gt;&lt;/span&gt;" style="text;strokeColor=none;fillColor=default;html=1;fontSize=11;fontStyle=1;verticalAlign=middle;align=center;fontFamily=Helvetica;container=0;points=[];fontColor=default;" vertex="1" parent="3PB9cPCuCjKQ1XBIXNEU-19">
          <mxGeometry x="130" y="99" width="79" height="10" as="geometry" />
        </mxCell>
        <mxCell id="3PB9cPCuCjKQ1XBIXNEU-27" value="&lt;span style=&quot;font-weight: normal; font-size: 10px;&quot;&gt;&lt;font style=&quot;font-size: 10px;&quot;&gt;Switch Name&lt;br&gt;&lt;/font&gt;&lt;/span&gt;" style="text;strokeColor=none;fillColor=default;html=1;fontSize=11;fontStyle=1;verticalAlign=middle;align=center;fontFamily=Helvetica;container=0;points=[];fontColor=default;" vertex="1" parent="3PB9cPCuCjKQ1XBIXNEU-19">
          <mxGeometry x="130" y="109" width="79" height="10" as="geometry" />
        </mxCell>
        <mxCell id="3PB9cPCuCjKQ1XBIXNEU-28" value="&lt;span style=&quot;font-weight: normal; font-size: 10px;&quot;&gt;&lt;font style=&quot;font-size: 10px;&quot;&gt;Switch Port&lt;br&gt;&lt;/font&gt;&lt;/span&gt;" style="text;strokeColor=none;fillColor=default;html=1;fontSize=11;fontStyle=1;verticalAlign=middle;align=center;fontFamily=Helvetica;container=0;points=[];fontColor=default;" vertex="1" parent="3PB9cPCuCjKQ1XBIXNEU-19">
          <mxGeometry x="260" y="99" width="79" height="10" as="geometry" />
        </mxCell>
        <mxCell id="3PB9cPCuCjKQ1XBIXNEU-29" value="&lt;span style=&quot;font-weight: normal; font-size: 10px;&quot;&gt;&lt;font style=&quot;font-size: 10px;&quot;&gt;Switch Name&lt;br&gt;&lt;/font&gt;&lt;/span&gt;" style="text;strokeColor=none;fillColor=default;html=1;fontSize=11;fontStyle=1;verticalAlign=middle;align=center;fontFamily=Helvetica;container=0;points=[];fontColor=default;" vertex="1" parent="3PB9cPCuCjKQ1XBIXNEU-19">
          <mxGeometry x="260" y="109" width="79" height="10" as="geometry" />
        </mxCell>
        <mxCell id="3PB9cPCuCjKQ1XBIXNEU-30" value="Enhet status ok" style="text;html=1;strokeColor=none;fillColor=none;align=center;verticalAlign=middle;whiteSpace=wrap;rounded=0;fontSize=11;fontFamily=Helvetica;fontColor=default;" vertex="1" parent="1">
          <mxGeometry x="340" y="180" width="180" height="40" as="geometry" />
        </mxCell>
        <mxCell id="3PB9cPCuCjKQ1XBIXNEU-31" value="00FF00" style="text;html=1;strokeColor=none;fillColor=none;align=center;verticalAlign=middle;whiteSpace=wrap;rounded=0;fontSize=11;fontFamily=Helvetica;fontColor=default;" vertex="1" parent="1">
          <mxGeometry x="340" y="220" width="180" height="20" as="geometry" />
        </mxCell>
        <mxCell id="3PB9cPCuCjKQ1XBIXNEU-32" value="Hatch" style="text;html=1;strokeColor=none;fillColor=none;align=center;verticalAlign=middle;whiteSpace=wrap;rounded=0;fontSize=11;fontFamily=Helvetica;fontColor=default;" vertex="1" parent="1">
          <mxGeometry x="340" y="240" width="180" height="20" as="geometry" />
        </mxCell>
        <mxCell id="3PB9cPCuCjKQ1XBIXNEU-33" value="" style="group;fontFamily=Helvetica;fontSize=11;fontColor=default;fillColor=#FFB366;fillStyle=hatch;" connectable="0" vertex="1" parent="1">
          <mxGeometry y="320" width="339" height="119" as="geometry" />
        </mxCell>
        <mxCell id="3PB9cPCuCjKQ1XBIXNEU-34" value="&lt;span style=&quot;font-weight: normal; font-size: 14px;&quot;&gt;&lt;font style=&quot;font-size: 14px;&quot;&gt;Text&lt;/font&gt;&lt;/span&gt;" style="text;strokeColor=none;fillColor=none;html=1;fontSize=11;fontStyle=1;verticalAlign=middle;align=center;fontFamily=Helvetica;container=0;points=[];fontColor=default;" vertex="1" parent="3PB9cPCuCjKQ1XBIXNEU-33">
          <mxGeometry x="20" y="49" width="109" height="10" as="geometry" />
        </mxCell>
        <mxCell id="3PB9cPCuCjKQ1XBIXNEU-35" value="&lt;span style=&quot;font-weight: 400;&quot;&gt;OS v.&lt;/span&gt;" style="text;strokeColor=none;fillColor=none;html=1;fontSize=11;fontStyle=1;verticalAlign=middle;align=left;fontFamily=Helvetica;container=0;points=[];fontColor=default;" vertex="1" parent="3PB9cPCuCjKQ1XBIXNEU-33">
          <mxGeometry width="190" height="40" as="geometry" />
        </mxCell>
        <mxCell id="3PB9cPCuCjKQ1XBIXNEU-36" value="" style="shape=mxgraph.rack.hp.hp_proliant_dl380e_g8;html=1;labelPosition=right;align=left;spacingLeft=15;dashed=0;shadow=0;fillColor=#ffffff;container=0;points=[[0.2,1,0,0,0],[0.82,1,0,0,0]];fontFamily=Helvetica;fontSize=11;fontColor=default;" vertex="1" parent="3PB9cPCuCjKQ1XBIXNEU-33">
          <mxGeometry x="129.5" y="40" width="209.5" height="39" as="geometry" />
        </mxCell>
        <mxCell id="3PB9cPCuCjKQ1XBIXNEU-37" value="&lt;span style=&quot;font-weight: normal; font-size: 14px;&quot;&gt;&lt;font style=&quot;font-size: 14px;&quot;&gt;Generic Server&lt;/font&gt;&lt;/span&gt;" style="text;strokeColor=none;fillColor=none;html=1;fontSize=11;fontStyle=1;verticalAlign=middle;align=center;fontFamily=Helvetica;container=0;points=[];fontColor=default;" vertex="1" parent="3PB9cPCuCjKQ1XBIXNEU-33">
          <mxGeometry x="20" y="69" width="109" height="10" as="geometry" />
        </mxCell>
        <mxCell id="3PB9cPCuCjKQ1XBIXNEU-38" value="&lt;span style=&quot;font-weight: 400; font-size: 10px;&quot;&gt;IE ADDR 2&lt;/span&gt;" style="text;strokeColor=none;fillColor=default;html=1;fontSize=11;fontStyle=1;verticalAlign=middle;align=center;fontFamily=Helvetica;container=0;points=[];fontColor=default;" vertex="1" parent="3PB9cPCuCjKQ1XBIXNEU-33">
          <mxGeometry x="260" y="79" width="79" height="10" as="geometry" />
        </mxCell>
        <mxCell id="3PB9cPCuCjKQ1XBIXNEU-39" value="&lt;span style=&quot;font-weight: normal; font-size: 10px;&quot;&gt;&lt;font style=&quot;font-size: 10px;&quot;&gt;IE ADDR&lt;/font&gt;&lt;/span&gt;" style="text;strokeColor=none;fillColor=default;html=1;fontSize=11;fontStyle=1;verticalAlign=middle;align=center;fontFamily=Helvetica;container=0;points=[];fontColor=default;" vertex="1" parent="3PB9cPCuCjKQ1XBIXNEU-33">
          <mxGeometry x="130" y="79" width="79" height="10" as="geometry" />
        </mxCell>
        <mxCell id="3PB9cPCuCjKQ1XBIXNEU-40" value="&lt;span style=&quot;font-weight: normal; font-size: 10px;&quot;&gt;&lt;font style=&quot;font-size: 10px;&quot;&gt;Switch Port&lt;br&gt;&lt;/font&gt;&lt;/span&gt;" style="text;strokeColor=none;fillColor=default;html=1;fontSize=11;fontStyle=1;verticalAlign=middle;align=center;fontFamily=Helvetica;container=0;points=[];fontColor=default;" vertex="1" parent="3PB9cPCuCjKQ1XBIXNEU-33">
          <mxGeometry x="130" y="99" width="79" height="10" as="geometry" />
        </mxCell>
        <mxCell id="3PB9cPCuCjKQ1XBIXNEU-41" value="&lt;span style=&quot;font-weight: normal; font-size: 10px;&quot;&gt;&lt;font style=&quot;font-size: 10px;&quot;&gt;Switch Name&lt;br&gt;&lt;/font&gt;&lt;/span&gt;" style="text;strokeColor=none;fillColor=default;html=1;fontSize=11;fontStyle=1;verticalAlign=middle;align=center;fontFamily=Helvetica;container=0;points=[];fontColor=default;" vertex="1" parent="3PB9cPCuCjKQ1XBIXNEU-33">
          <mxGeometry x="130" y="109" width="79" height="10" as="geometry" />
        </mxCell>
        <mxCell id="3PB9cPCuCjKQ1XBIXNEU-42" value="&lt;span style=&quot;font-weight: normal; font-size: 10px;&quot;&gt;&lt;font style=&quot;font-size: 10px;&quot;&gt;Switch Port&lt;br&gt;&lt;/font&gt;&lt;/span&gt;" style="text;strokeColor=none;fillColor=default;html=1;fontSize=11;fontStyle=1;verticalAlign=middle;align=center;fontFamily=Helvetica;container=0;points=[];fontColor=default;" vertex="1" parent="3PB9cPCuCjKQ1XBIXNEU-33">
          <mxGeometry x="260" y="99" width="79" height="10" as="geometry" />
        </mxCell>
        <mxCell id="3PB9cPCuCjKQ1XBIXNEU-43" value="&lt;span style=&quot;font-weight: normal; font-size: 10px;&quot;&gt;&lt;font style=&quot;font-size: 10px;&quot;&gt;Switch Name&lt;br&gt;&lt;/font&gt;&lt;/span&gt;" style="text;strokeColor=none;fillColor=default;html=1;fontSize=11;fontStyle=1;verticalAlign=middle;align=center;fontFamily=Helvetica;container=0;points=[];fontColor=default;" vertex="1" parent="3PB9cPCuCjKQ1XBIXNEU-33">
          <mxGeometry x="260" y="109" width="79" height="10" as="geometry" />
        </mxCell>
        <mxCell id="3PB9cPCuCjKQ1XBIXNEU-44" value="Enhet mÃ¥ fÃ¸lges opp snart" style="text;html=1;strokeColor=none;fillColor=none;align=center;verticalAlign=middle;whiteSpace=wrap;rounded=0;fontSize=11;fontFamily=Helvetica;fontColor=default;" vertex="1" parent="1">
          <mxGeometry x="340" y="340" width="180" height="40" as="geometry" />
        </mxCell>
        <mxCell id="3PB9cPCuCjKQ1XBIXNEU-45" value="FFB366" style="text;html=1;strokeColor=none;fillColor=none;align=center;verticalAlign=middle;whiteSpace=wrap;rounded=0;fontSize=11;fontFamily=Helvetica;fontColor=default;" vertex="1" parent="1">
          <mxGeometry x="340" y="380" width="180" height="20" as="geometry" />
        </mxCell>
        <mxCell id="3PB9cPCuCjKQ1XBIXNEU-46" value="Hatch" style="text;html=1;strokeColor=none;fillColor=none;align=center;verticalAlign=middle;whiteSpace=wrap;rounded=0;fontSize=11;fontFamily=Helvetica;fontColor=default;" vertex="1" parent="1">
          <mxGeometry x="340" y="400" width="180" height="20" as="geometry" />
        </mxCell>
        <mxCell id="3PB9cPCuCjKQ1XBIXNEU-47" value="" style="group;fontFamily=Helvetica;fontSize=11;fontColor=default;fillColor=#FFCCCC;fillStyle=solid;" connectable="0" vertex="1" parent="1">
          <mxGeometry y="480" width="339" height="119" as="geometry" />
        </mxCell>
        <mxCell id="3PB9cPCuCjKQ1XBIXNEU-48" value="&lt;span style=&quot;font-weight: normal; font-size: 14px;&quot;&gt;&lt;font style=&quot;font-size: 14px;&quot;&gt;Text&lt;/font&gt;&lt;/span&gt;" style="text;strokeColor=none;fillColor=none;html=1;fontSize=11;fontStyle=1;verticalAlign=middle;align=center;fontFamily=Helvetica;container=0;points=[];fontColor=default;" vertex="1" parent="3PB9cPCuCjKQ1XBIXNEU-47">
          <mxGeometry x="20" y="49" width="109" height="10" as="geometry" />
        </mxCell>
        <mxCell id="3PB9cPCuCjKQ1XBIXNEU-49" value="&lt;span style=&quot;font-weight: 400;&quot;&gt;OS v.&lt;/span&gt;" style="text;strokeColor=none;fillColor=none;html=1;fontSize=11;fontStyle=1;verticalAlign=middle;align=left;fontFamily=Helvetica;container=0;points=[];fontColor=default;" vertex="1" parent="3PB9cPCuCjKQ1XBIXNEU-47">
          <mxGeometry width="190" height="40" as="geometry" />
        </mxCell>
        <mxCell id="3PB9cPCuCjKQ1XBIXNEU-50" value="" style="shape=mxgraph.rack.hp.hp_proliant_dl380e_g8;html=1;labelPosition=right;align=left;spacingLeft=15;dashed=0;shadow=0;fillColor=#ffffff;container=0;points=[[0.2,1,0,0,0],[0.82,1,0,0,0]];fontFamily=Helvetica;fontSize=11;fontColor=default;" vertex="1" parent="3PB9cPCuCjKQ1XBIXNEU-47">
          <mxGeometry x="129.5" y="40" width="209.5" height="39" as="geometry" />
        </mxCell>
        <mxCell id="3PB9cPCuCjKQ1XBIXNEU-51" value="&lt;span style=&quot;font-weight: normal; font-size: 14px;&quot;&gt;&lt;font style=&quot;font-size: 14px;&quot;&gt;Generic Server&lt;/font&gt;&lt;/span&gt;" style="text;strokeColor=none;fillColor=none;html=1;fontSize=11;fontStyle=1;verticalAlign=middle;align=center;fontFamily=Helvetica;container=0;points=[];fontColor=default;" vertex="1" parent="3PB9cPCuCjKQ1XBIXNEU-47">
          <mxGeometry x="20" y="69" width="109" height="10" as="geometry" />
        </mxCell>
        <mxCell id="3PB9cPCuCjKQ1XBIXNEU-52" value="&lt;span style=&quot;font-weight: 400; font-size: 10px;&quot;&gt;IE ADDR 2&lt;/span&gt;" style="text;strokeColor=none;fillColor=default;html=1;fontSize=11;fontStyle=1;verticalAlign=middle;align=center;fontFamily=Helvetica;container=0;points=[];fontColor=default;" vertex="1" parent="3PB9cPCuCjKQ1XBIXNEU-47">
          <mxGeometry x="260" y="79" width="79" height="10" as="geometry" />
        </mxCell>
        <mxCell id="3PB9cPCuCjKQ1XBIXNEU-53" value="&lt;span style=&quot;font-weight: normal; font-size: 10px;&quot;&gt;&lt;font style=&quot;font-size: 10px;&quot;&gt;IE ADDR&lt;/font&gt;&lt;/span&gt;" style="text;strokeColor=none;fillColor=default;html=1;fontSize=11;fontStyle=1;verticalAlign=middle;align=center;fontFamily=Helvetica;container=0;points=[];fontColor=default;" vertex="1" parent="3PB9cPCuCjKQ1XBIXNEU-47">
          <mxGeometry x="130" y="79" width="79" height="10" as="geometry" />
        </mxCell>
        <mxCell id="3PB9cPCuCjKQ1XBIXNEU-54" value="&lt;span style=&quot;font-weight: normal; font-size: 10px;&quot;&gt;&lt;font style=&quot;font-size: 10px;&quot;&gt;Switch Port&lt;br&gt;&lt;/font&gt;&lt;/span&gt;" style="text;strokeColor=none;fillColor=default;html=1;fontSize=11;fontStyle=1;verticalAlign=middle;align=center;fontFamily=Helvetica;container=0;points=[];fontColor=default;" vertex="1" parent="3PB9cPCuCjKQ1XBIXNEU-47">
          <mxGeometry x="130" y="99" width="79" height="10" as="geometry" />
        </mxCell>
        <mxCell id="3PB9cPCuCjKQ1XBIXNEU-55" value="&lt;span style=&quot;font-weight: normal; font-size: 10px;&quot;&gt;&lt;font style=&quot;font-size: 10px;&quot;&gt;Switch Name&lt;br&gt;&lt;/font&gt;&lt;/span&gt;" style="text;strokeColor=none;fillColor=default;html=1;fontSize=11;fontStyle=1;verticalAlign=middle;align=center;fontFamily=Helvetica;container=0;points=[];fontColor=default;" vertex="1" parent="3PB9cPCuCjKQ1XBIXNEU-47">
          <mxGeometry x="130" y="109" width="79" height="10" as="geometry" />
        </mxCell>
        <mxCell id="3PB9cPCuCjKQ1XBIXNEU-56" value="&lt;span style=&quot;font-weight: normal; font-size: 10px;&quot;&gt;&lt;font style=&quot;font-size: 10px;&quot;&gt;Switch Port&lt;br&gt;&lt;/font&gt;&lt;/span&gt;" style="text;strokeColor=none;fillColor=default;html=1;fontSize=11;fontStyle=1;verticalAlign=middle;align=center;fontFamily=Helvetica;container=0;points=[];fontColor=default;" vertex="1" parent="3PB9cPCuCjKQ1XBIXNEU-47">
          <mxGeometry x="260" y="99" width="79" height="10" as="geometry" />
        </mxCell>
        <mxCell id="3PB9cPCuCjKQ1XBIXNEU-57" value="&lt;span style=&quot;font-weight: normal; font-size: 10px;&quot;&gt;&lt;font style=&quot;font-size: 10px;&quot;&gt;Switch Name&lt;br&gt;&lt;/font&gt;&lt;/span&gt;" style="text;strokeColor=none;fillColor=default;html=1;fontSize=11;fontStyle=1;verticalAlign=middle;align=center;fontFamily=Helvetica;container=0;points=[];fontColor=default;" vertex="1" parent="3PB9cPCuCjKQ1XBIXNEU-47">
          <mxGeometry x="260" y="109" width="79" height="10" as="geometry" />
        </mxCell>
        <mxCell id="3PB9cPCuCjKQ1XBIXNEU-58" value="Enhet mÃ¥ ha endring" style="text;html=1;strokeColor=none;fillColor=none;align=center;verticalAlign=middle;whiteSpace=wrap;rounded=0;fontSize=11;fontFamily=Helvetica;fontColor=default;" vertex="1" parent="1">
          <mxGeometry x="340" y="500" width="180" height="40" as="geometry" />
        </mxCell>
        <mxCell id="3PB9cPCuCjKQ1XBIXNEU-59" value="FFCCCC" style="text;html=1;strokeColor=none;fillColor=none;align=center;verticalAlign=middle;whiteSpace=wrap;rounded=0;fontSize=11;fontFamily=Helvetica;fontColor=default;" vertex="1" parent="1">
          <mxGeometry x="340" y="540" width="180" height="20" as="geometry" />
        </mxCell>
        <mxCell id="3PB9cPCuCjKQ1XBIXNEU-60" value="Solid" style="text;html=1;strokeColor=none;fillColor=none;align=center;verticalAlign=middle;whiteSpace=wrap;rounded=0;fontSize=11;fontFamily=Helvetica;fontColor=default;" vertex="1" parent="1">
          <mxGeometry x="340" y="560" width="180" height="20" as="geometry" />
        </mxCell>
        <mxCell id="3PB9cPCuCjKQ1XBIXNEU-73" value="Tegningsbibliotek finnes pÃ¥ GitHub" style="text;html=1;strokeColor=none;fillColor=none;align=center;verticalAlign=middle;whiteSpace=wrap;rounded=0;fontSize=11;fontFamily=Helvetica;fontColor=default;" vertex="1" parent="1">
          <mxGeometry x="340" y="660" width="180" height="40" as="geometry" />
        </mxCell>
        <mxCell id="3PB9cPCuCjKQ1XBIXNEU-74" value="https://github.com/warben0/DrawIOStorage" style="text;html=1;strokeColor=none;fillColor=none;align=center;verticalAlign=middle;whiteSpace=wrap;rounded=0;fontSize=11;fontFamily=Helvetica;fontColor=default;" vertex="1" parent="1">
          <mxGeometry x="340" y="700" width="180" height="20" as="geometry" />
        </mxCell>
      </root>
    </mxGraphModel>
  </diagram>
  <diagram name="400 GrÃ¸nt" id="sgXkQGD6M7rJJxJayZnh">
    <mxGraphModel grid="1" page="1" gridSize="10" guides="1" tooltips="1" connect="1" arrows="1" fold="1" pageScale="1" pageWidth="827" pageHeight="1169" math="0" shadow="0">
      <root>
        <mxCell id="0" />
        <mxCell id="1" parent="0" />
        <mxCell id="a2m6TTTOq1k4yQAmSqJ4-1" value="" style="endArrow=none;html=1;rounded=0;fillColor=#d5e8d4;strokeColor=#82b366;strokeWidth=4;" edge="1" parent="1">
          <mxGeometry width="50" height="50" relative="1" as="geometry">
            <mxPoint x="10" y="520" as="sourcePoint" />
            <mxPoint x="1640" y="520" as="targetPoint" />
          </mxGeometry>
        </mxCell>
        <mxCell id="Pd7Ta5sf-WXGW21fIm4o-10" value="400 GrÃ¸nt 192.168.120.x" style="edgeLabel;html=1;align=center;verticalAlign=middle;resizable=0;points=[];fontSize=24;" connectable="0" vertex="1" parent="a2m6TTTOq1k4yQAmSqJ4-1">
          <mxGeometry x="-0.0066" y="3" relative="1" as="geometry">
            <mxPoint as="offset" />
          </mxGeometry>
        </mxCell>
        <mxCell id="nDUXhOcZeGDEwbYO9OWx-68" style="edgeStyle=orthogonalEdgeStyle;rounded=0;orthogonalLoop=1;jettySize=auto;html=1;exitX=0.2;exitY=1;exitDx=0;exitDy=0;exitPerimeter=0;strokeColor=#82b366;endArrow=none;endFill=0;strokeWidth=2;" edge="1" parent="1" source="nDUXhOcZeGDEwbYO9OWx-106">
          <mxGeometry relative="1" as="geometry">
            <mxPoint x="301.2380952380952" y="520" as="targetPoint" />
            <mxPoint x="301.39999999999986" y="359" as="sourcePoint" />
          </mxGeometry>
        </mxCell>
        <mxCell id="nDUXhOcZeGDEwbYO9OWx-103" value="" style="group;fontFamily=Helvetica;fontSize=11;fillColor=#00FFFF;strokeColor=none;gradientColor=none;fillStyle=hatch;rounded=0;shadow=0;glass=0;" connectable="0" vertex="1" parent="1">
          <mxGeometry x="130" y="270" width="339" height="119" as="geometry" />
        </mxCell>
        <mxCell id="nDUXhOcZeGDEwbYO9OWx-104" value="&lt;span style=&quot;font-weight: normal; font-size: 14px;&quot;&gt;&lt;font style=&quot;font-size: 14px;&quot;&gt;IP21-SERVER&lt;/font&gt;&lt;/span&gt;" style="text;strokeColor=none;fillColor=none;html=1;fontSize=11;fontStyle=1;verticalAlign=middle;align=center;fontFamily=Helvetica;container=0;points=[];fontColor=default;" vertex="1" parent="nDUXhOcZeGDEwbYO9OWx-103">
          <mxGeometry x="20" y="49" width="109" height="10" as="geometry" />
        </mxCell>
        <mxCell id="nDUXhOcZeGDEwbYO9OWx-105" value="&lt;span style=&quot;font-weight: normal;&quot;&gt;&lt;font style=&quot;font-size: 11px;&quot;&gt;MS Win. Server 2016 STD&lt;br style=&quot;border-color: var(--border-color);&quot;&gt;V. 10.0.1.14393&lt;br style=&quot;border-color: var(--border-color);&quot;&gt;&lt;/font&gt;&lt;/span&gt;&lt;div style=&quot;border-color: var(--border-color); font-family: Verdana;&quot;&gt;&lt;span style=&quot;border-color: var(--border-color); background-color: initial; font-weight: normal;&quot;&gt;&lt;font style=&quot;font-size: 11px;&quot;&gt;B 14393&lt;/font&gt;&lt;/span&gt;&lt;/div&gt;" style="text;strokeColor=none;fillColor=none;html=1;fontSize=11;fontStyle=1;verticalAlign=middle;align=left;fontFamily=Helvetica;container=0;points=[];fontColor=default;" vertex="1" parent="nDUXhOcZeGDEwbYO9OWx-103">
          <mxGeometry width="190" height="40" as="geometry" />
        </mxCell>
        <mxCell id="nDUXhOcZeGDEwbYO9OWx-106" value="" style="shape=mxgraph.rack.hp.hp_proliant_dl380e_g8;html=1;labelPosition=right;align=left;spacingLeft=15;dashed=0;shadow=0;fillColor=#ffffff;container=0;points=[[0.2,1,0,0,0],[0.82,1,0,0,0]];fontFamily=Helvetica;fontSize=11;fontColor=default;" vertex="1" parent="nDUXhOcZeGDEwbYO9OWx-103">
          <mxGeometry x="129.5" y="40" width="209.5" height="39" as="geometry" />
        </mxCell>
        <mxCell id="nDUXhOcZeGDEwbYO9OWx-109" value="&lt;span style=&quot;font-weight: normal; font-size: 10px;&quot;&gt;&lt;font style=&quot;font-size: 10px;&quot;&gt;192.168.120.11&lt;/font&gt;&lt;/span&gt;" style="text;strokeColor=none;fillColor=default;html=1;fontSize=11;fontStyle=1;verticalAlign=middle;align=center;fontFamily=Helvetica;container=0;points=[];fontColor=default;" vertex="1" parent="nDUXhOcZeGDEwbYO9OWx-103">
          <mxGeometry x="130" y="79" width="79" height="10" as="geometry" />
        </mxCell>
        <mxCell id="nDUXhOcZeGDEwbYO9OWx-110" value="&lt;span style=&quot;font-weight: normal; font-size: 10px;&quot;&gt;&lt;font style=&quot;font-size: 10px;&quot;&gt;Switch Port&lt;br&gt;&lt;/font&gt;&lt;/span&gt;" style="text;strokeColor=none;fillColor=default;html=1;fontSize=11;fontStyle=1;verticalAlign=middle;align=center;fontFamily=Helvetica;container=0;points=[];fontColor=default;" vertex="1" parent="nDUXhOcZeGDEwbYO9OWx-103">
          <mxGeometry x="130" y="99" width="79" height="10" as="geometry" />
        </mxCell>
        <mxCell id="nDUXhOcZeGDEwbYO9OWx-111" value="&lt;span style=&quot;font-weight: normal; font-size: 10px;&quot;&gt;&lt;font style=&quot;font-size: 10px;&quot;&gt;Switch Name&lt;br&gt;&lt;/font&gt;&lt;/span&gt;" style="text;strokeColor=none;fillColor=default;html=1;fontSize=11;fontStyle=1;verticalAlign=middle;align=center;fontFamily=Helvetica;container=0;points=[];fontColor=default;" vertex="1" parent="nDUXhOcZeGDEwbYO9OWx-103">
          <mxGeometry x="130" y="109" width="79" height="10" as="geometry" />
        </mxCell>
      </root>
    </mxGraphModel>
  </diagram>
  <diagram id="a80Cfnj6-Hu9OzV2k9DC" name="430 GrÃ¸nt 2">
    <mxGraphModel grid="1" page="1" gridSize="10" guides="1" tooltips="1" connect="1" arrows="1" fold="1" pageScale="1" pageWidth="827" pageHeight="1169" math="0" shadow="0">
      <root>
        <mxCell id="0" />
        <mxCell id="1" parent="0" />
        <mxCell id="BQOPqLsALhsyPlMGhuNf-1" value="" style="endArrow=none;html=1;rounded=0;fillColor=#d5e8d4;strokeColor=#00FF00;strokeWidth=4;" edge="1" parent="1">
          <mxGeometry width="50" height="50" relative="1" as="geometry">
            <mxPoint x="10" y="520" as="sourcePoint" />
            <mxPoint x="1640" y="520" as="targetPoint" />
          </mxGeometry>
        </mxCell>
        <mxCell id="vgYwMYPz_5jKVzJ5Xe-I-1" value="430 GrÃ¸nt 2 192.168.220.x" style="edgeLabel;html=1;align=center;verticalAlign=middle;resizable=0;points=[];fontSize=24;" connectable="0" vertex="1" parent="1">
          <mxGeometry x="820" y="517.0000000000002" as="geometry" />
        </mxCell>
      </root>
    </mxGraphModel>
  </diagram>
  <diagram id="ox4p6-B_YgHQ7Ol3Elpn" name="431 Swisslog">
    <mxGraphModel grid="1" page="1" gridSize="10" guides="1" tooltips="1" connect="1" arrows="1" fold="1" pageScale="1" pageWidth="827" pageHeight="1169" math="0" shadow="0">
      <root>
        <mxCell id="0" />
        <mxCell id="1" parent="0" />
        <mxCell id="d52usSH1pUPVTuEgpsR--1" value="" style="endArrow=none;html=1;rounded=0;fillColor=#d5e8d4;strokeColor=#80FF00;strokeWidth=4;" edge="1" parent="1">
          <mxGeometry width="50" height="50" relative="1" as="geometry">
            <mxPoint x="10" y="520" as="sourcePoint" />
            <mxPoint x="1640" y="520" as="targetPoint" />
          </mxGeometry>
        </mxCell>
        <mxCell id="Gg1TNzacCbxiwdu4Ga1Z-1" value="431 Swisslog 192.168.221.x" style="edgeLabel;html=1;align=center;verticalAlign=middle;resizable=0;points=[];fontSize=24;" connectable="0" vertex="1" parent="1">
          <mxGeometry x="820" y="517.0000000000002" as="geometry" />
        </mxCell>
      </root>
    </mxGraphModel>
  </diagram>
  <diagram id="WQMoYt6mtd65zV7ZPxQ4" name="433 Lilla1">
    <mxGraphModel grid="1" page="1" gridSize="10" guides="1" tooltips="1" connect="1" arrows="1" fold="1" pageScale="1" pageWidth="827" pageHeight="1169" math="0" shadow="0">
      <root>
        <mxCell id="0" />
        <mxCell id="1" parent="0" />
        <mxCell id="A-7HN5zNj0hIrtZI3S91-1" value="" style="endArrow=none;html=1;rounded=0;fillColor=#e1d5e7;strokeColor=#7F00FF;strokeWidth=4;" edge="1" parent="1">
          <mxGeometry width="50" height="50" relative="1" as="geometry">
            <mxPoint x="10" y="520" as="sourcePoint" />
            <mxPoint x="1640" y="520" as="targetPoint" />
          </mxGeometry>
        </mxCell>
        <mxCell id="OnWaGGLWccrB2YpNu761-1" value="433 Lilla1 10.0.1.x" style="edgeLabel;html=1;align=center;verticalAlign=middle;resizable=0;points=[];fontSize=24;" connectable="0" vertex="1" parent="1">
          <mxGeometry x="820" y="517.0000000000002" as="geometry" />
        </mxCell>
      </root>
    </mxGraphModel>
  </diagram>
  <diagram id="wk_C0G00SGekF-uK9WTC" name="434 Lilla2">
    <mxGraphModel grid="1" page="1" gridSize="10" guides="1" tooltips="1" connect="1" arrows="1" fold="1" pageScale="1" pageWidth="827" pageHeight="1169" math="0" shadow="0">
      <root>
        <mxCell id="0" />
        <mxCell id="1" parent="0" />
        <mxCell id="iybY1Y7Dei8u8CKyogi0-1" value="" style="endArrow=none;html=1;rounded=0;fillColor=#e1d5e7;strokeColor=#FF0080;strokeWidth=4;" edge="1" parent="1">
          <mxGeometry width="50" height="50" relative="1" as="geometry">
            <mxPoint x="10" y="520" as="sourcePoint" />
            <mxPoint x="1640" y="520" as="targetPoint" />
          </mxGeometry>
        </mxCell>
        <mxCell id="Ls6eO88HkOz2Gb2-Aaln-1" value="434 Lilla2 Elopak 10.0.2.x" style="edgeLabel;html=1;align=center;verticalAlign=middle;resizable=0;points=[];fontSize=24;" connectable="0" vertex="1" parent="1">
          <mxGeometry x="820" y="517.0000000000002" as="geometry" />
        </mxCell>
      </root>
    </mxGraphModel>
  </diagram>
  <diagram id="4ZVE-cmmfrm0IYI3aK-_" name="435 GK">
    <mxGraphModel grid="1" page="1" gridSize="10" guides="1" tooltips="1" connect="1" arrows="1" fold="1" pageScale="1" pageWidth="827" pageHeight="1169" math="0" shadow="0">
      <root>
        <mxCell id="0" />
        <mxCell id="1" parent="0" />
        <mxCell id="9v1VU3LK0mDKrCQtMwfe-1" value="" style="endArrow=none;html=1;rounded=0;fillColor=#e1d5e7;strokeColor=#000099;strokeWidth=4;" edge="1" parent="1">
          <mxGeometry width="50" height="50" relative="1" as="geometry">
            <mxPoint x="10" y="520" as="sourcePoint" />
            <mxPoint x="1640" y="520" as="targetPoint" />
          </mxGeometry>
        </mxCell>
        <mxCell id="XYt-GtibV3jnaY6gBOpz-1" value="435 GK 172.18.2.x" style="edgeLabel;html=1;align=center;verticalAlign=middle;resizable=0;points=[];fontSize=24;" connectable="0" vertex="1" parent="1">
          <mxGeometry x="820" y="517.0000000000002" as="geometry" />
        </mxCell>
      </root>
    </mxGraphModel>
  </diagram>
  <diagram id="JoWFZyPveilIo-gnnZQL" name="440 Therma">
    <mxGraphModel grid="1" page="1" gridSize="10" guides="1" tooltips="1" connect="1" arrows="1" fold="1" pageScale="1" pageWidth="827" pageHeight="1169" math="0" shadow="0">
      <root>
        <mxCell id="0" />
        <mxCell id="1" parent="0" />
        <mxCell id="Lo-jOkgQBX8mau1L_EvG-1" value="" style="endArrow=none;html=1;rounded=0;fillColor=#e1d5e7;strokeColor=#3333FF;strokeWidth=4;" edge="1" parent="1">
          <mxGeometry width="50" height="50" relative="1" as="geometry">
            <mxPoint x="10" y="520" as="sourcePoint" />
            <mxPoint x="1640" y="520" as="targetPoint" />
          </mxGeometry>
        </mxCell>
        <mxCell id="wVcto4tKAov9tP6sTtpJ-1" value="440 Therma 172.18.3.x" style="edgeLabel;html=1;align=center;verticalAlign=middle;resizable=0;points=[];fontSize=24;" connectable="0" vertex="1" parent="1">
          <mxGeometry x="820" y="517.0000000000002" as="geometry" />
        </mxCell>
      </root>
    </mxGraphModel>
  </diagram>
  <diagram id="Cvmj_kcOJsJHO23VMI1N" name="441 Fromfoid">
    <mxGraphModel grid="1" page="1" gridSize="10" guides="1" tooltips="1" connect="1" arrows="1" fold="1" pageScale="1" pageWidth="827" pageHeight="1169" math="0" shadow="0">
      <root>
        <mxCell id="0" />
        <mxCell id="1" parent="0" />
        <mxCell id="beNDqdCjJoziu-Yo3FAi-1" value="" style="endArrow=none;html=1;rounded=0;fillColor=#e1d5e7;strokeColor=#9999FF;strokeWidth=4;" edge="1" parent="1">
          <mxGeometry width="50" height="50" relative="1" as="geometry">
            <mxPoint x="10" y="520" as="sourcePoint" />
            <mxPoint x="1640" y="520" as="targetPoint" />
          </mxGeometry>
        </mxCell>
        <mxCell id="i5pxLub8-EWRUH9bH6SN-1" value="441 Fromfoid 172.18.4.x" style="edgeLabel;html=1;align=center;verticalAlign=middle;resizable=0;points=[];fontSize=24;" connectable="0" vertex="1" parent="1">
          <mxGeometry x="820" y="517.0000000000002" as="geometry" />
        </mxCell>
      </root>
    </mxGraphModel>
  </diagram>
  <diagram id="9oqaveb41WFxsYYIZvNg" name="442 Krones">
    <mxGraphModel grid="1" page="1" gridSize="10" guides="1" tooltips="1" connect="1" arrows="1" fold="1" pageScale="1" pageWidth="827" pageHeight="1169" math="0" shadow="0">
      <root>
        <mxCell id="0" />
        <mxCell id="1" parent="0" />
        <mxCell id="mEutB18v4gV41KZPVECb-1" value="" style="endArrow=none;html=1;rounded=0;fillColor=#e1d5e7;strokeColor=#007FFF;strokeWidth=4;" edge="1" parent="1">
          <mxGeometry width="50" height="50" relative="1" as="geometry">
            <mxPoint x="10" y="520" as="sourcePoint" />
            <mxPoint x="1640" y="520" as="targetPoint" />
          </mxGeometry>
        </mxCell>
        <mxCell id="LSkKY7f8Hu9gao0p4PQw-1" value="442 Krones 172.18.5.x" style="edgeLabel;html=1;align=center;verticalAlign=middle;resizable=0;points=[];fontSize=24;" connectable="0" vertex="1" parent="1">
          <mxGeometry x="820" y="517.0000000000002" as="geometry" />
        </mxCell>
      </root>
    </mxGraphModel>
  </diagram>
  <diagram id="vqYVw0od_EuBIoc0Wc-4" name="443 Lilleborg">
    <mxGraphModel grid="1" page="1" gridSize="10" guides="1" tooltips="1" connect="1" arrows="1" fold="1" pageScale="1" pageWidth="827" pageHeight="1169" math="0" shadow="0">
      <root>
        <mxCell id="0" />
        <mxCell id="1" parent="0" />
        <mxCell id="QqttCzHUl1ZeE-l95vZ0-1" value="" style="endArrow=none;html=1;rounded=0;fillColor=#e1d5e7;strokeColor=#00FFFF;strokeWidth=4;" edge="1" parent="1">
          <mxGeometry width="50" height="50" relative="1" as="geometry">
            <mxPoint x="10" y="520" as="sourcePoint" />
            <mxPoint x="1640" y="520" as="targetPoint" />
          </mxGeometry>
        </mxCell>
        <mxCell id="wLkDpMZl0ILLk2tqdU1m-1" value="443 Lilleborg 172.18.6.x" style="edgeLabel;html=1;align=center;verticalAlign=middle;resizable=0;points=[];fontSize=24;" connectable="0" vertex="1" parent="1">
          <mxGeometry x="820" y="517.0000000000002" as="geometry" />
        </mxCell>
      </root>
    </mxGraphModel>
  </diagram>
  <diagram id="5TXjSYsvMTk4hd_H1dJm" name="444 CodeIT">
    <mxGraphModel grid="1" page="1" gridSize="10" guides="1" tooltips="1" connect="1" arrows="1" fold="1" pageScale="1" pageWidth="827" pageHeight="1169" math="0" shadow="0">
      <root>
        <mxCell id="0" />
        <mxCell id="1" parent="0" />
        <mxCell id="ccuGZSauj_5-sbBS7RUB-1" value="" style="endArrow=none;html=1;rounded=0;fillColor=#e1d5e7;strokeColor=#0066CC;strokeWidth=4;" edge="1" parent="1">
          <mxGeometry width="50" height="50" relative="1" as="geometry">
            <mxPoint x="10" y="520" as="sourcePoint" />
            <mxPoint x="1640" y="520" as="targetPoint" />
          </mxGeometry>
        </mxCell>
        <mxCell id="QeqjEAM4WJv-Gja5dxlO-1" value="444 CodeIT 172.18.7.x" style="edgeLabel;html=1;align=center;verticalAlign=middle;resizable=0;points=[];fontSize=24;" connectable="0" vertex="1" parent="1">
          <mxGeometry x="820" y="517.0000000000002" as="geometry" />
        </mxCell>
      </root>
    </mxGraphModel>
  </diagram>
  <diagram id="buP3rjOLMX6dBxH-d5aN" name="445 Ampac">
    <mxGraphModel grid="1" page="1" gridSize="10" guides="1" tooltips="1" connect="1" arrows="1" fold="1" pageScale="1" pageWidth="827" pageHeight="1169" math="0" shadow="0">
      <root>
        <mxCell id="0" />
        <mxCell id="1" parent="0" />
        <mxCell id="ht1jGfJaSpCW4vY6waj5-1" value="" style="endArrow=none;html=1;rounded=0;fillColor=#dae8fc;strokeColor=#6c8ebf;strokeWidth=4;" edge="1" parent="1">
          <mxGeometry width="50" height="50" relative="1" as="geometry">
            <mxPoint x="10" y="520" as="sourcePoint" />
            <mxPoint x="1640" y="520" as="targetPoint" />
          </mxGeometry>
        </mxCell>
        <mxCell id="2QXAAkWwPm3ya7SNg3zA-1" value="445 Ampac 172.18.8.x" style="edgeLabel;html=1;align=center;verticalAlign=middle;resizable=0;points=[];fontSize=24;" connectable="0" vertex="1" parent="1">
          <mxGeometry x="820" y="517.0000000000002" as="geometry" />
        </mxCell>
      </root>
    </mxGraphModel>
  </diagram>
  <diagram id="6ypi9bmUr6iYxn1jfpcd" name="450? PCS 7">
    <mxGraphModel grid="1" page="1" gridSize="10" guides="1" tooltips="1" connect="1" arrows="1" fold="1" pageScale="1" pageWidth="827" pageHeight="1169" math="0" shadow="0">
      <root>
        <mxCell id="0" />
        <mxCell id="1" parent="0" />
        <mxCell id="Th-kJhKPmplhfhomctit-1" value="" style="endArrow=none;html=1;rounded=0;fillColor=#e1d5e7;strokeColor=#1D5D8F;strokeWidth=4;" edge="1" parent="1">
          <mxGeometry width="50" height="50" relative="1" as="geometry">
            <mxPoint x="10" y="520" as="sourcePoint" />
            <mxPoint x="1640" y="520" as="targetPoint" />
          </mxGeometry>
        </mxCell>
        <mxCell id="Px2DVu9UiiW2xnCbS_aR-1" value="450 PCS 7 140.80.0.x" style="edgeLabel;html=1;align=center;verticalAlign=middle;resizable=0;points=[];fontSize=24;" connectable="0" vertex="1" parent="1">
          <mxGeometry x="820" y="517.0000000000002" as="geometry" />
        </mxCell>
      </root>
    </mxGraphModel>
  </diagram>
</mxfile>
